<?xml version="1.0" standalone="no"?>
<!DOCTYPE svg PUBLIC "-//W3C//DTD SVG 20010904//EN"
 "http://www.w3.org/TR/2001/REC-SVG-20010904/DTD/svg10.dtd">
<svg version="1.0" xmlns="http://www.w3.org/2000/svg"
 width="512.000000pt" height="512.000000pt" viewBox="0 0 512.000000 512.000000"
 preserveAspectRatio="xMidYMid meet">

<g transform="translate(0.000000,512.000000) scale(0.100000,-0.100000)"
fill="#000000" stroke="none">
<path d="M946 5110 c-237 -38 -442 -140 -611 -305 -151 -147 -246 -312 -302
-524 -22 -81 -26 -120 -27 -246 -1 -167 10 -243 57 -375 78 -224 112 -267 608
-765 l429 -430 411 410 c225 226 436 444 467 485 273 359 295 856 54 1239
-163 259 -410 433 -707 497 -85 19 -298 26 -379 14z m344 -313 c209 -57 368
-171 480 -344 91 -138 125 -259 124 -438 0 -151 -15 -217 -75 -342 -55 -116
-120 -190 -439 -508 l-280 -280 -309 310 c-227 228 -322 331 -359 388 -194
297 -170 683 58 952 120 141 273 231 460 271 80 17 262 12 340 -9z"/>
<path d="M983 4506 c-88 -22 -164 -66 -234 -135 -199 -199 -198 -505 1 -702
201 -198 502 -198 701 0 199 199 199 503 0 702 -126 126 -299 176 -468 135z
m227 -320 c59 -39 85 -89 85 -166 0 -78 -26 -127 -88 -168 -56 -37 -153 -39
-210 -3 -76 47 -111 140 -88 229 14 51 75 117 123 131 53 16 135 6 178 -23z"/>
<path d="M1890 2681 l0 -151 298 0 c233 0 310 -3 356 -15 274 -71 304 -440 47
-559 -44 -20 -67 -21 -441 -27 -453 -6 -473 -9 -656 -99 -557 -271 -716 -978
-330 -1466 148 -188 380 -320 619 -353 52 -7 376 -11 943 -11 l864 0 0 150 0
150 -865 0 c-972 0 -952 -1 -1104 72 -68 32 -101 57 -171 127 -72 71 -95 101
-128 171 -94 196 -95 399 -3 585 90 181 244 306 439 356 67 17 112 19 421 19
265 0 362 4 416 15 269 57 475 310 475 585 0 190 -108 390 -267 496 -31 21
-96 52 -143 68 l-85 31 -342 3 -343 4 0 -151z"/>
<path d="M4200 1923 c-318 -55 -573 -286 -656 -593 -24 -89 -25 -301 -2 -385
59 -214 96 -264 466 -638 l306 -308 314 313 c340 340 389 400 441 543 87 240
58 499 -79 709 -151 232 -405 369 -677 365 -48 -1 -99 -4 -113 -6z m245 -308
c87 -23 152 -62 226 -135 170 -168 196 -424 63 -625 -18 -27 -119 -135 -224
-240 l-190 -190 -190 190 c-207 206 -249 258 -280 350 -112 322 126 661 465
664 39 1 97 -6 130 -14z"/>
</g>
</svg>
